<?xml version="1.0" encoding="UTF-8"?>
<!DOCTYPE svg PUBLIC "-//W3C//DTD SVG 1.1//EN" "http://www.w3.org/Graphics/SVG/1.1/DTD/svg11.dtd">
<!-- Creator: CorelDRAW X7 -->
<svg xmlns="http://www.w3.org/2000/svg" xml:space="preserve" width="8.5in" height="11in" version="1.1" style="shape-rendering:geometricPrecision; text-rendering:geometricPrecision; image-rendering:optimizeQuality; fill-rule:evenodd; clip-rule:evenodd"
viewBox="0 0 8500 11000"
 xmlns:xlink="http://www.w3.org/1999/xlink">
 <defs>
  <style type="text/css">
   <![CDATA[
    .fil0 {fill:#E6E6E6}
    .fil1 {fill:url(#id0)}
    .fil2 {fill:url(#id1)}
   ]]>
  </style>
  <linearGradient id="id0" gradientUnits="userSpaceOnUse" x1="3425.97" y1="5924.73" x2="3389.41" y2="7464.26">
   <stop offset="0" style="stop-opacity:1; stop-color:#1FB0FF"/>
   <stop offset="1" style="stop-opacity:1; stop-color:#0078BA"/>
  </linearGradient>
  <linearGradient id="id1" gradientUnits="userSpaceOnUse" x1="4054.65" y1="4467.24" x2="3141.94" y2="7250.56">
   <stop offset="0" style="stop-opacity:1; stop-color:#0078BA"/>
   <stop offset="1" style="stop-opacity:1; stop-color:#04517A"/>
  </linearGradient>
 </defs>
 <g id="Layer_x0020_1">
  <metadata id="CorelCorpID_0Corel-Layer"/>
  <path class="fil0" d="M3137 7782c0,0 -2909,-1909 1697,-5757 1802,3605 -1914,3679 -606,6363 -2163,-2108 549,-2927 272,-4697 -1664,1407 -2089,2579 -1363,4091z"/>
  <path class="fil1" d="M3605 5935c14,-2 28,-3 43,-5l-2 3c-14,0 -27,1 -41,2zm838 19c305,64 512,196 553,383 84,382 -560,847 -1437,1039 -877,192 -1656,39 -1740,-343 -46,-211 130,-448 445,-650l1 3c-184,144 -281,302 -250,446 67,307 694,431 1400,276 705,-154 1223,-528 1156,-835 -20,-90 -88,-165 -192,-221 21,-32 43,-65 64,-98z"/>
  <path class="fil2" d="M3858 4868c149,-18 293,-28 431,-31 -5,11 -11,22 -16,32 -129,-10 -269,-10 -415,-1zm1228 54c336,92 562,256 610,477 111,504 -739,1118 -1898,1372 -1159,254 -2187,51 -2298,-453 -62,-286 184,-607 621,-878 -264,196 -405,415 -362,613 89,405 917,568 1849,364 931,-204 1615,-698 1526,-1103 -18,-82 -66,-154 -138,-215 31,-58 61,-116 90,-177z"/>
 </g>
</svg>
